<svg width="12" height="13" viewBox="0 0 12 13" fill="none" xmlns="http://www.w3.org/2000/svg">
<path d="M2.9 2.28809H4.6C4.8 2.88809 5.35 3.28809 6 3.28809C6.65 3.28809 7.2 2.88809 7.4 2.28809H9.1C9.3 2.88809 9.85 3.28809 10.5 3.28809C11.35 3.28809 12 2.63809 12 1.78809C12 0.938086 11.35 0.288086 10.5 0.288086C9.85 0.288086 9.3 0.688086 9.1 1.28809H7.4C7.2 0.688086 6.65 0.288086 6 0.288086C5.35 0.288086 4.8 0.688086 4.6 1.28809H2.9C2.7 0.688086 2.15 0.288086 1.5 0.288086C0.65 0.288086 0 0.938086 0 1.78809C0 2.43809 0.4 2.98809 1 3.18809V4.88809C0.4 5.08809 0 5.63809 0 6.28809C0 7.13809 0.65 7.78809 1.5 7.78809C2.15 7.78809 2.7 7.38809 2.9 6.78809H4.6C4.8 7.38809 5.35 7.78809 6 7.78809C6.65 7.78809 7.2 7.38809 7.4 6.78809H9.1C9.25 7.18809 9.6 7.53809 10 7.68809V9.38809C9.6 9.53809 9.25 9.88809 9.1 10.2881H7.4C7.2 9.68809 6.65 9.28809 6 9.28809C5.35 9.28809 4.8 9.68809 4.6 10.2881H2.9C2.7 9.68809 2.15 9.28809 1.5 9.28809C0.65 9.28809 0 9.93809 0 10.7881C0 11.6381 0.65 12.2881 1.5 12.2881C2.15 12.2881 2.7 11.8881 2.9 11.2881H4.6C4.8 11.8881 5.35 12.2881 6 12.2881C6.65 12.2881 7.2 11.8881 7.4 11.2881H9.1C9.3 11.8881 9.85 12.2881 10.5 12.2881C11.35 12.2881 12 11.6381 12 10.7881C12 10.1381 11.6 9.58809 11 9.38809V7.68809C11.6 7.48809 12 6.93809 12 6.28809C12 5.43809 11.35 4.78809 10.5 4.78809C9.85 4.78809 9.3 5.18809 9.1 5.78809H7.4C7.2 5.18809 6.65 4.78809 6 4.78809C5.35 4.78809 4.8 5.18809 4.6 5.78809H2.9C2.75 5.38809 2.4 5.03809 2 4.88809V3.18809C2.4 3.03809 2.75 2.68809 2.9 2.28809Z" fill="#00CB82"/>
</svg>
